<svg xmlns="http://www.w3.org/2000/svg">
  <symbol id="heartInBand"  viewBox="0 0 20 20">
    <path d="M5.2 4L5.2 4c1 0 2 0.4 2.7 1.1l1.1 1.1c0.3 0.3 0.6 0.4 1 0.4 0.4 0 0.7-0.1 1-0.4l1.1-1.1c0.7-0.7 1.7-1.1 2.7-1.1 1 0 2 0.4 2.7 1.1 1.5 1.5 1.5 3.9 0 5.4l-1.1 1.1 -6.4 6.4 -6.4-6.4 -1.1-1.1C1.8 9.8 1.4 8.8 1.4 7.8c0-1 0.4-2 1.1-2.7C3.2 4.4 4.2 4 5.2 4M5.2 2.6c-1.3 0-2.7 0.5-3.7 1.5 -2 2-2 5.3 0 7.4l1.1 1.1L10 20l7.4-7.4 1.1-1.1c2-2 2-5.3 0-7.4 -1-1-2.4-1.5-3.7-1.5s-2.7 0.5-3.7 1.5l-1.1 1.1L8.9 4.1C7.9 3.1 6.6 2.6 5.2 2.6L5.2 2.6z" fill="#ffffff"/>
</symbol>
</svg>
